<?xml version="1.0" standalone="no"?>
<!DOCTYPE svg PUBLIC "-//W3C//DTD SVG 20010904//EN"
 "http://www.w3.org/TR/2001/REC-SVG-20010904/DTD/svg10.dtd">
<svg version="1.0" xmlns="http://www.w3.org/2000/svg"
 width="50.000000pt" height="50.000000pt" viewBox="0 0 50.000000 50.000000"
 preserveAspectRatio="xMidYMid meet">

<g transform="translate(0.000000,50.000000) scale(0.100000,-0.100000)"
fill="#000000" stroke="none">
<path d="M152 470 c-12 -5 -27 -21 -32 -35 -16 -41 -9 -135 11 -172 31 -55 26
-69 -41 -103 -58 -29 -80 -53 -80 -84 0 -14 21 -16 150 -16 126 0 152 -2 157
-15 7 -19 55 -45 82 -45 52 0 101 48 101 100 0 36 -28 77 -62 90 -69 27 -82
53 -49 98 27 39 28 135 1 162 -27 27 -67 35 -103 22 -20 -7 -36 -8 -48 -2 -22
12 -56 12 -87 0z m99 -31 c27 -19 29 -25 28 -76 -1 -31 -10 -73 -21 -94 -28
-58 -24 -86 15 -109 29 -17 33 -24 29 -50 l-4 -30 -134 0 c-132 0 -135 0 -124
20 6 12 37 33 68 48 66 31 75 56 45 119 -10 21 -20 64 -21 95 -3 47 1 61 17
77 27 27 65 27 102 0z m114 5 c22 -14 25 -23 23 -68 -1 -29 -9 -64 -20 -81
-20 -33 -24 -70 -8 -80 16 -10 12 -19 -18 -36 -25 -14 -32 -14 -55 -2 -32 16
-34 40 -8 86 20 36 27 137 11 166 -5 10 -6 21 -3 25 12 11 54 6 78 -10z m90
-289 c50 -49 15 -135 -55 -135 -41 0 -80 39 -80 80 0 70 86 105 135 55z"/>
<path d="M390 135 c0 -20 -5 -25 -25 -25 -14 0 -25 -4 -25 -10 0 -5 11 -10 25
-10 20 0 25 -5 25 -25 0 -14 5 -25 10 -25 6 0 10 11 10 25 0 20 5 25 25 25 14
0 25 5 25 10 0 6 -11 10 -25 10 -20 0 -25 5 -25 25 0 14 -4 25 -10 25 -5 0
-10 -11 -10 -25z"/>
</g>
</svg>
